Coordinates
version=1
nRows=9
nColumns=24
inDegrees=yes

Units are S.I. units (second, meters, Newtons, ...)
Angles are in degrees.

endheader
time	pelvis_tilt	pelvis_list	pelvis_rotation	pelvis_tx	pelvis_ty	pelvis_tz	hip_flexion_r	hip_adduction_r	hip_rotation_r	knee_angle_r	ankle_angle_r	subtalar_angle_r	mtp_angle_r	hip_flexion_l	hip_adduction_l	hip_rotation_l	knee_angle_l	ankle_angle_l	subtalar_angle_l	mtp_angle_l	lumbar_extension	lumbar_bending	lumbar_rotation
      0.70916667	      1.23642419	     -5.01285388	     -5.86640683	     -0.52362215	      1.01869986	      0.33515799	      8.62949144	      7.68908091	     -1.70774247	    -12.47178432	     -3.01298230	    -11.85699085	      0.29875972	     13.66959014	     -9.79126988	     -8.95237461	    -67.41863081	      3.38922872	    -15.69904339	     -3.56361504	    -13.27542653	      6.42750067	      6.35601134
      0.71333333	      1.26147170	     -4.86850162	     -5.92545610	     -0.51823304	      1.01963742	      0.33559966	      8.15421315	      7.54551995	     -1.59012395	    -12.24919281	     -2.88843102	    -11.87549610	      0.30428157	     14.22326919	     -9.65122522	     -8.93029371	    -67.11890443	      3.71190197	    -15.75438412	     -3.61353985	    -13.30818687	      6.19881606	      6.43404247
      0.71750000	      1.28469341	     -4.70716940	     -5.99085341	     -0.51283095	      1.02055991	      0.33603326	      7.68085983	      7.38167966	     -1.45892660	    -12.02234865	     -2.76405401	    -11.87934435	      0.30996704	     14.75288724	     -9.49144679	     -8.92869280	    -66.71954963	      3.99613350	    -15.78720246	     -3.67323963	    -13.33326956	      5.96136562	      6.52993129
      0.72166667	      1.34732520	     -4.52169801	     -6.11199353	     -0.50737433	      1.02155744	      0.33659546	      7.16169903	      7.19585570	     -1.26544614	    -11.79472437	     -2.61074944	    -11.84047579	      0.32202912	     15.18351443	     -9.32561723	     -9.02455970	    -66.19282156	      4.17835025	    -15.85964360	     -3.83566535	    -13.39326082	      5.67556467	      6.72407702
      0.72583333	      1.34202619	     -4.38231022	     -6.15736307	     -0.50197993	      1.02234350	      0.33697243	      6.72087451	      7.05277994	     -1.14647881	    -11.56346814	     -2.52744581	    -11.89752591	      0.32451272	     15.71854849	     -9.19032026	     -9.02674253	    -65.65944440	      4.46050676	    -15.93840294	     -3.89236354	    -13.38770396	      5.47153800	      6.78052998
      0.73000000	      1.42901116	     -4.20419907	     -6.29809647	     -0.49653582	      1.02330816	      0.33756812	      6.17662923	      6.87281791	     -0.91601501	    -11.33050387	     -2.39810628	    -11.90018315	      0.33302895	     16.07229983	     -9.04340412	     -9.18201822	    -64.97271456	      4.61731042	    -16.08530568	     -4.11841960	    -13.47740342	      5.18037234	      6.96987454
      0.73416667	      1.43801547	     -4.04214425	     -6.36852349	     -0.49106906	      1.02408746	      0.33800281	      5.71532678	      6.70529417	     -0.76337196	    -11.08943821	     -2.31515359	    -11.96517669	      0.33473218	     16.52326619	     -8.89586452	     -9.25399079	    -64.24333226	      4.75780409	    -16.18359901	     -4.28678800	    -13.46807085	      4.94598495	      7.06110204
      0.73833333	      1.49556511	     -3.88035525	     -6.46839198	     -0.48563180	      1.02490367	      0.33848963	      5.20803627	      6.53480216	     -0.57580486	    -10.85806582	     -2.21459122	    -11.99587197	      0.33323160	     16.88620947	     -8.75551135	     -9.38227048	    -63.43540253	      4.92756760	    -16.34675726	     -4.54049246	    -13.52857734	      4.68055044	      7.20730718
      0.74250000	      1.46098758	     -3.73813979	     -6.49335951	     -0.48016044	      1.02550271	      0.33879221	      4.79861113	      6.38246910	     -0.47380769	    -10.62258729	     -2.15588739	    -12.08188319	      0.33009749	     17.36190354	     -8.61527945	     -9.41662256	    -62.59159179	      5.08778599	    -16.43473608	     -4.61260218	    -13.46714663	      4.49059947	      7.24893308
